<?xml version="1.0" encoding="UTF-8" standalone="no"?>
<svg width="34px" height="31px" viewBox="0 0 34 31" version="1.1" xmlns="http://www.w3.org/2000/svg" xmlns:xlink="http://www.w3.org/1999/xlink" xmlns:sketch="http://www.bohemiancoding.com/sketch/ns">
    <!-- Generator: Sketch 3.4.2 (15857) - http://www.bohemiancoding.com/sketch -->
    <title>Mail Icon</title>
    <desc>Created with Sketch.</desc>
    <defs></defs>
    <g id="Welcome" stroke="none" stroke-width="1" fill="none" fill-rule="evenodd" sketch:type="MSPage">
        <g id="White-Menus" sketch:type="MSArtboardGroup" transform="translate(-510.000000, -18.000000)" fill="#656464">
            <g id="Header" sketch:type="MSLayerGroup" transform="translate(1.000000, 0.000000)">
                <g id="Header-" sketch:type="MSShapeGroup">
                    <g id="Social-Icons" transform="translate(509.000000, 17.000000)">
                        <g id="Mail-Icon" transform="translate(0.000000, 1.000000)">
                            <path d="M33.1007866,0.24620262 L0.517453256,13.704536 C0.10063747,13.876699 0.106802432,14.469216 0.527110203,14.632669 L13.2771102,19.5910023 C13.4556553,19.6604365 13.6581769,19.6217515 13.7985589,19.4913967 L33.6318922,1.07473008 C34.0402349,0.695554688 33.6158231,0.0334701315 33.1007866,0.24620262 L33.1007866,0.24620262 Z M33.4825467,1.17046405 L32.9514411,0.341936588 L13.1181078,18.7586033 L13.6395565,18.6589977 L0.889556464,13.7006643 L0.899213411,14.6287974 L33.4825467,1.17046405 L33.4825467,1.17046405 Z" id="Shape"></path>
                            <path d="M32.8029596,0.602666937 L27.1362929,26.8110003 L27.8659594,26.4785587 L13.6992927,18.686892 L13.7985589,19.4913967 L33.6318922,1.07473008 L32.8029596,0.602666937 L32.8029596,0.602666937 Z M33.7803737,0.81399973 C33.8837525,0.335872834 33.3099056,0.00907669717 32.9514411,0.341936588 L13.1181078,18.7586033 C12.8683561,18.9905155 12.9187408,19.3988597 13.217374,19.563108 L27.3840406,27.3547746 C27.6772289,27.5160282 28.0429936,27.3493831 28.1137071,27.0223331 L33.7803737,0.81399973 L33.7803737,0.81399973 Z" id="Shape"></path>
                            <path d="M12.9583333,19.125 L12.9583333,30.4583333 C12.9583333,30.9687005 13.6330635,31.1511133 13.8902228,30.7102688 L18.8485561,22.2102688 L17.9847772,21.7063978 L13.0264439,30.2063978 L13.9583333,30.4583333 L13.9583333,19.125 L12.9583333,19.125 L12.9583333,19.125 Z" id="Shape"></path>
                        </g>
                    </g>
                </g>
            </g>
        </g>
    </g>
</svg>