<?xml version="1.0" encoding="UTF-8" standalone="no"?>
<svg width="36px" height="29px" viewBox="0 0 36 29" version="1.1" xmlns="http://www.w3.org/2000/svg" xmlns:xlink="http://www.w3.org/1999/xlink" xmlns:sketch="http://www.bohemiancoding.com/sketch/ns">
    <!-- Generator: Sketch 3.4.2 (15857) - http://www.bohemiancoding.com/sketch -->
    <title>Twitter Icon</title>
    <desc>Created with Sketch.</desc>
    <defs></defs>
    <g id="Welcome" stroke="none" stroke-width="1" fill="none" fill-rule="evenodd" sketch:type="MSPage">
        <g id="White-Menus" sketch:type="MSArtboardGroup" transform="translate(-572.000000, -21.000000)" fill="#656464">
            <g id="Header" sketch:type="MSLayerGroup" transform="translate(1.000000, 0.000000)">
                <g id="Header-" sketch:type="MSShapeGroup">
                    <g id="Social-Icons" transform="translate(509.000000, 17.000000)">
                        <g id="Twitter-Icon" transform="translate(62.000000, 4.000000)">
                            <path d="M34.7595584,3.57908244 C33.6483069,4.07464051 32.7655007,4.0831232 31.8091835,3.6115327 L31.8448214,4.48899989 C32.1520442,4.30512431 32.404384,4.12950233 32.6172055,3.95028585 C33.1752888,3.4803254 33.4586469,3.00922604 33.735409,2.19367153 C33.8041066,1.99123566 34.0648647,1.15553872 34.0655652,1.15334201 C34.2052628,0.715293308 33.7294562,0.336797321 33.3340463,0.571431229 C32.0350962,1.34222051 30.612416,1.88932014 29.120108,2.18489805 L29.5819845,2.33335803 C28.1972676,0.856661179 26.2599816,0 24.1939075,0 C20.1164248,0 16.8102861,3.30714388 16.8102861,7.38362146 C16.8102861,7.95824927 16.8742818,8.52198223 17.0004555,9.06600409 L17.5125158,8.45366349 C12.0682817,8.18123558 7.08121979,5.60847019 3.68674684,1.44300808 C3.4660386,1.1721702 3.04268443,1.20542988 2.86697816,1.50741099 C2.21505448,2.6278527 1.86598025,3.90087371 1.86598025,5.22188558 C1.86598025,7.71885656 3.114934,10.0054367 5.15116994,11.3668249 L5.44516964,10.4514266 C4.42122728,10.4184405 3.43590395,10.1426357 2.55396312,9.65346791 C2.23079628,9.47422366 1.83155859,9.69539859 1.81213561,10.0644353 C1.81108923,10.0867109 1.81108923,10.0867109 1.81052016,10.1072594 C1.80991743,10.1455236 1.80991743,10.1455236 1.80992964,10.1770629 C1.80992964,13.7102633 4.31120333,16.729257 7.73463074,17.4175651 L7.70205798,16.444876 C6.76327576,16.7000106 5.77674626,16.7379678 4.81705426,16.5544354 C4.44427611,16.483145 4.13110416,16.8368627 4.24703108,17.1982584 C5.20432259,20.1825609 7.96667913,22.2672703 11.1445035,22.3264149 L10.8453262,21.4330054 C8.04794469,23.6260144 4.54024303,24.5918032 1.02140197,24.1793926 C0.494594741,24.1176504 0.246828172,24.8107131 0.693382159,25.0969429 C3.90580617,27.1560252 7.62945995,28.2678667 11.5158644,28.2678667 C23.307309,28.2678667 31.5987373,18.8594461 31.5987373,8.181964 C31.5987373,7.84639403 31.5931118,7.55311851 31.5800325,7.26827867 L31.0805588,7.29121369 L31.3731204,7.69668585 C31.5177885,7.59230299 31.67281,7.48349667 31.8586248,7.35542153 C31.988942,7.26559886 32.456244,6.94666283 32.5443862,6.8861114 C33.989596,5.89329011 34.769691,5.22588363 35.3790146,4.31339905 C35.6574085,3.89649393 35.2174069,3.37490673 34.7595584,3.57908244 L34.7595584,3.57908244 Z M35.1668416,4.49238432 L34.5473854,3.75806771 C34.0294004,4.53376944 33.323802,5.13744071 31.978152,6.06186706 C31.8919492,6.12108611 31.4237736,6.44061836 31.2911112,6.53205754 C31.0998389,6.66389426 30.9392113,6.77663543 30.7879971,6.88574152 C30.6511532,6.98447897 30.5733446,7.14557993 30.5810851,7.3141487 C30.5933971,7.58227832 30.5987373,7.86068136 30.5987373,8.181964 C30.5987373,18.333315 22.7249189,27.2678667 11.5158644,27.2678667 C7.82257971,27.2678667 4.28586875,26.2118443 1.23301784,24.2550443 L0.90499803,25.1725946 C4.68401531,25.6154979 8.45567899,24.5770316 11.4622892,22.2199976 C11.8325311,21.9297463 11.6334823,21.3353425 11.163112,21.3265881 C8.41581004,21.2754562 6.02672515,19.4724494 5.1992406,16.8928128 L4.62921742,17.5366357 C5.7383831,17.7487535 6.87884741,17.7048736 7.96431706,17.4098735 C8.47342812,17.2715115 8.44897118,16.5411772 7.93174431,16.4371845 C4.97295223,15.8422951 2.80992964,13.2315645 2.80992964,10.1770629 C2.80994185,10.1493536 2.80994185,10.1493536 2.81023683,10.1310622 C2.81045325,10.1233329 2.81045325,10.1233329 2.81075343,10.1169941 L2.31144452,10.0907147 L2.06892592,10.5279614 C3.08867724,11.0935657 4.22903975,11.412768 5.41297158,11.4509081 C5.91544161,11.4670951 6.12489892,10.8149282 5.70697128,10.5355098 C3.94548188,9.35781178 2.86598025,7.38146402 2.86598025,5.22188558 C2.86598025,4.07900487 3.16753713,2.97927249 3.73131633,2.01032204 L2.91154765,2.07472495 C6.48314475,6.45754156 11.7326362,9.16569117 17.4625386,9.45241385 C17.7942292,9.46901155 18.0496318,9.16359168 17.9745989,8.84007326 C17.8656765,8.37043386 17.8102861,7.88250427 17.8102861,7.38362146 C17.8102861,3.85936059 20.6687776,1 24.1939075,1 C25.9808207,1 27.655008,1.74031981 28.8525246,3.01738159 C28.9705529,3.14324994 29.1451393,3.19936686 29.3144011,3.16584156 C30.9186836,2.84808512 32.4481596,2.2599166 33.8443587,1.43142031 L33.1128398,0.849509527 C33.1085608,0.862926929 32.8524733,1.68365529 32.7884502,1.87231671 C32.565561,2.52912005 32.3738159,2.8479074 31.9730733,3.1853717 C31.8045504,3.32728438 31.5953053,3.47291357 31.3312667,3.63094308 C30.9914476,3.83432789 31.0117112,4.33325307 31.3669046,4.50841027 C32.5999581,5.11646822 33.7930891,5.10500368 35.1668416,4.49238432 L35.1668416,4.49238432 Z" id="Shape"></path>
                        </g>
                    </g>
                </g>
            </g>
        </g>
    </g>
</svg>