<?xml version="1.0" encoding="UTF-8" standalone="no"?>
<svg width="34px" height="33px" viewBox="0 0 34 33" version="1.1" xmlns="http://www.w3.org/2000/svg" xmlns:xlink="http://www.w3.org/1999/xlink" xmlns:sketch="http://www.bohemiancoding.com/sketch/ns">
    <!-- Generator: Sketch 3.4.2 (15857) - http://www.bohemiancoding.com/sketch -->
    <title>Shape</title>
    <desc>Created with Sketch.</desc>
    <defs></defs>
    <g id="Welcome" stroke="none" stroke-width="1" fill="none" fill-rule="evenodd" sketch:type="MSPage">
        <g id="White-Menus" sketch:type="MSArtboardGroup" transform="translate(-837.000000, -17.000000)" fill="#656464">
            <g id="Header" sketch:type="MSLayerGroup" transform="translate(1.000000, 0.000000)">
                <g id="Header-" sketch:type="MSShapeGroup">
                    <g id="Social-Icons" transform="translate(509.000000, 17.000000)">
                        <g id="LinkedIn-Icon" transform="translate(327.000000, 0.000000)">
                            <path d="M22.4090909,17.2727273 C20.4257162,17.2727273 18.8181818,18.880817 18.8181818,20.8636364 L18.8181818,31.6818182 L19.3181818,31.1818182 L11.5909091,31.1818182 L12.090903,31.6842765 C12.0912199,31.6198256 12.0912199,31.6198256 12.0926449,31.3183625 C12.0945449,30.9086781 12.0945449,30.9086781 12.0972363,30.3031201 C12.1019859,29.2208208 12.1067355,28.0455035 12.1111685,26.8183044 C12.1177048,25.0087951 12.1229746,23.2449917 12.1265203,21.5863069 C12.1387428,15.8687027 12.1294052,12.2286488 12.0900411,11.5614603 L11.5909091,12.0909091 L19.3181818,12.0909091 L18.8181818,11.5909091 L18.8181818,13.8859091 C18.8181818,14.322951 19.3394264,14.5496517 19.6591136,14.2516488 C19.7206501,14.1942863 19.8516405,14.0843138 20.0474926,13.9391226 C20.3801778,13.6924929 20.7689274,13.4448588 21.2090149,13.2133857 C22.4663494,12.5520649 23.8762793,12.1558182 25.4057273,12.1558182 C29.9045646,12.1558182 32.7272727,15.4854391 32.7272727,21.3983636 L32.7272727,31.6818182 L33.2272727,31.1818182 L25.5,31.1818182 L26,31.6818182 L26,20.8636364 C26,18.880817 24.3924656,17.2727273 22.4090909,17.2727273 L22.4090909,17.2727273 Z M22.4090909,18.2727273 C23.8401035,18.2727273 25,19.4330244 25,20.8636364 L25,31.6818182 C25,31.9579606 25.2238576,32.1818182 25.5,32.1818182 L33.2272727,32.1818182 C33.5034151,32.1818182 33.7272727,31.9579606 33.7272727,31.6818182 L33.7272727,21.3983636 C33.7272727,14.9663922 30.4968335,11.1558182 25.4057273,11.1558182 C23.7018912,11.1558182 22.136145,11.5958555 20.7435078,12.3283416 C20.2561053,12.5847009 19.8243272,12.8597443 19.4519591,13.1357921 C19.2247793,13.3042075 19.0652362,13.4381512 18.97725,13.5201694 L19.8181818,13.8859091 L19.8181818,11.5909091 C19.8181818,11.3147667 19.5943242,11.0909091 19.3181818,11.0909091 L11.5909091,11.0909091 C11.3031881,11.0909091 11.074831,11.3331364 11.0917771,11.6203579 C11.1292022,12.2546817 11.1386189,15.9255919 11.1265226,21.5841692 C11.122978,23.24232 11.1177097,25.0056436 11.111175,26.8146922 C11.106743,28.0416177 11.1019945,29.2166792 11.097246,30.2987317 C11.0945552,30.9041375 11.0945552,30.9041375 11.0926559,31.3136871 C11.0912315,31.6150229 11.0912315,31.6150229 11.0909151,31.6793599 C11.0895527,31.9564594 11.3138062,32.1818182 11.5909091,32.1818182 L19.3181818,32.1818182 C19.5943242,32.1818182 19.8181818,31.9579606 19.8181818,31.6818182 L19.8181818,20.8636364 C19.8181818,19.4330244 20.9780783,18.2727273 22.4090909,18.2727273 L22.4090909,18.2727273 Z M4.62090909,8 L4.57609091,8 C2.63249359,8 1.231,6.51842106 1.231,4.66572727 C1.231,2.81820631 2.63441349,1.43809091 4.66727273,1.43809091 C6.66334547,1.43809091 8.01593392,2.82971509 8.05885461,4.73110199 C8.05872727,6.5710934 6.65647344,8 4.62090909,8 L4.62090909,8 Z M4.62090909,9 C7.21301649,9 9.05872727,7.11920762 9.05872727,4.71981818 C9.00366211,2.274789 7.21848431,0.438090909 4.66727273,0.438090909 C2.08584113,0.438090909 0.231,2.2621398 0.231,4.66572727 C0.231,7.05866206 2.06740075,9 4.57609091,9 L4.62090909,9 L4.62090909,9 Z M8.5,31.1818182 L0.772727273,31.1818182 L1.27272727,31.6818182 L1.27272727,11.5909091 L0.772727273,12.0909091 L8.5,12.0909091 L8,11.5909091 L8,31.6818182 L8.5,31.1818182 L8.5,31.1818182 Z M8.5,32.1818182 C8.77614237,32.1818182 9,31.9579606 9,31.6818182 L9,11.5909091 C9,11.3147667 8.77614237,11.0909091 8.5,11.0909091 L0.772727273,11.0909091 C0.496584898,11.0909091 0.272727273,11.3147667 0.272727273,11.5909091 L0.272727273,31.6818182 C0.272727273,31.9579606 0.496584898,32.1818182 0.772727273,32.1818182 L8.5,32.1818182 L8.5,32.1818182 Z" id="Shape"></path>
                        </g>
                    </g>
                </g>
            </g>
        </g>
    </g>
</svg>