<?xml version="1.0" encoding="UTF-8" standalone="no"?>
<svg width="34px" height="31px" viewBox="0 0 34 31" version="1.1" xmlns="http://www.w3.org/2000/svg" xmlns:xlink="http://www.w3.org/1999/xlink" xmlns:sketch="http://www.bohemiancoding.com/sketch/ns">
    <!-- Generator: Sketch 3.4.2 (15857) - http://www.bohemiancoding.com/sketch -->
    <title>GitHub Icon</title>
    <desc>Created with Sketch.</desc>
    <defs></defs>
    <g id="Welcome" stroke="none" stroke-width="1" fill="none" fill-rule="evenodd" sketch:type="MSPage">
        <g id="White-Menus" sketch:type="MSArtboardGroup" transform="translate(-900.000000, -19.000000)" fill="#656464">
            <g id="Header" sketch:type="MSLayerGroup" transform="translate(1.000000, 0.000000)">
                <g id="Header-" sketch:type="MSShapeGroup">
                    <g id="Social-Icons" transform="translate(509.000000, 17.000000)">
                        <g id="GitHub-Icon" transform="translate(390.000000, 2.000000)">
                            <path d="M28.673913,21.9482786 C28.673913,18.5826915 27.8048578,16.6692145 26.0456659,15.8977954 C24.7439824,15.3269972 23.5609075,15.3798819 20.4592023,15.8704074 C19.9602685,15.9493124 19.6821689,15.9919825 19.3764377,16.0352545 C18.4656952,16.1641577 17.7501715,16.2285394 17.0869565,16.2285394 C16.4247901,16.2285394 15.7112354,16.1661894 14.7997494,16.0411565 C14.5007712,16.0001442 14.2292922,15.9598712 13.7406265,15.8852232 C10.6331961,15.4105361 9.44379971,15.3624878 8.13872741,15.9329836 C6.37365531,16.7045625 5.5,18.6079507 5.5,21.9482786 C5.5,25.0818992 8.04029241,27.6221916 11.173913,27.6221916 L23,27.6221916 C26.1346104,27.6221916 28.673913,25.0823878 28.673913,21.9482786 L28.673913,21.9482786 Z M27.673913,21.9482786 C27.673913,24.5301472 25.5822815,26.6221916 23,26.6221916 L11.173913,26.6221916 C8.59257716,26.6221916 6.5,24.5296144 6.5,21.9482786 C6.5,18.964292 7.20260183,17.4335693 8.5392673,16.8492629 C9.59611961,16.3872733 10.695779,16.4316965 13.5896195,16.8737559 C14.0830618,16.9491336 14.3584012,16.9899792 14.6638472,17.0318787 C15.6165063,17.1625596 16.371602,17.2285394 17.0869565,17.2285394 C17.8049585,17.2285394 18.5633903,17.1602969 19.5165773,17.0253863 C19.8291844,16.981141 20.1113974,16.9378398 20.6154081,16.858132 C23.500898,16.4018003 24.5935629,16.352957 25.6440727,16.8136136 C26.973779,17.3966999 27.673913,18.938248 27.673913,21.9482786 L27.673913,21.9482786 Z" id="Shape"></path>
                            <path d="M31.0042213,12.0761949 L31.0515256,12.1087166 C31.2916327,12.2737903 31.6214605,12.1994091 31.7674772,11.9472586 C31.820146,11.8563069 31.9078633,11.6926915 32.0188963,11.4650972 C32.2018718,11.0900361 32.3844124,10.6687086 32.5547122,10.2096407 C33.2154173,8.42861409 33.512683,6.60787614 33.2356031,4.88643522 C32.9672786,3.21938985 32.1672413,1.76694442 30.7604385,0.613366105 C30.6710426,0.540061443 30.5590067,0.5 30.4433987,0.5 C29.6322732,0.5 28.7188733,0.806721681 27.7126551,1.36552743 C26.934939,1.79743399 26.1179246,2.37155052 25.2798546,3.05352766 C24.6110825,3.59773916 23.9664624,4.17964136 23.3688301,4.76153562 C23.1595827,4.96527272 22.9709809,5.15463307 22.8059488,5.32487834 C22.7061605,5.42781887 22.6358743,5.50209263 22.5980336,5.54295177 C22.38754,5.77023528 22.4322658,6.13227663 22.6917431,6.30150095 L22.7257431,6.32367486 L22.998877,5.90486957 L23.1398454,5.4251531 C19.367554,4.3166355 15.1387796,4.30823953 11.3562929,5.40085688 L11.4950509,5.88121739 L11.8591509,5.53853504 C11.8193252,5.49565273 11.7484399,5.42081588 11.6479252,5.31718953 C11.4820818,5.14621216 11.293275,4.95673713 11.0841393,4.75318703 C10.4886199,4.1735728 9.84702768,3.59449725 9.18160273,3.05287567 C8.34280601,2.3701384 7.52509439,1.79555825 6.74671375,1.36357923 C5.74203784,0.806012781 4.8298254,0.5 4.01948568,0.5 C3.90389969,0.5 3.79188373,0.540046226 3.70249542,0.61332549 C1.48963039,2.42740073 0.803815689,4.91870831 1.24774428,7.74077377 C1.403002,8.72775109 1.68861462,9.69226411 2.0574806,10.6024869 C2.28900463,11.1738014 2.50333842,11.6085056 2.67428372,11.9132342 L3.11035524,11.6686087 L2.69428815,11.3913215 C1.04584612,13.864795 0.291303996,16.8249218 0.549642682,20.1964606 C0.949030279,25.3752425 5.22053238,30.326087 9.89113785,30.326087 L24.5081813,30.326087 C29.181294,30.326087 33.4519116,25.3756913 33.8496698,20.1965481 C34.1110358,16.8206933 33.3556883,13.8569902 31.7030911,11.3861952 L31.2874857,11.6641739 L31.0042213,12.0761949 L31.0042213,12.0761949 Z M31.5707501,11.252153 C31.1167422,10.9400225 30.5655742,11.484195 30.8718803,11.9421526 C32.3984421,14.2245122 33.0968774,16.964913 32.8526297,20.1196653 C32.4916731,24.8196196 28.6040245,29.326087 24.5081813,29.326087 L9.89113785,29.326087 C5.79772935,29.326087 1.90910305,24.8190111 1.54670105,20.119815 C1.30529544,16.9692664 2.00314008,14.2315682 3.52642233,11.9458959 C3.63064566,11.7895096 3.63837362,11.5878885 3.54642676,11.4239832 C3.029436,10.502391 2.48193661,9.15136793 2.23559664,7.5853784 C1.84228628,5.08509435 2.43020424,2.9494089 4.33647593,1.38667451 L4.01948568,1.5 C4.63060592,1.5 5.39196263,1.75540639 6.26146115,2.23795323 C6.98235307,2.63802766 7.7537715,3.18007905 8.5503337,3.8284396 C9.19086855,4.34980193 9.81101581,4.90952207 10.386667,5.46979871 C10.5886979,5.66643378 10.7707611,5.84914139 10.9301236,6.01343724 C11.0257683,6.11204282 11.0923063,6.18229002 11.1309509,6.22389974 C11.2594851,6.36046732 11.453634,6.41362361 11.6338089,6.3615779 C15.2335923,5.32173661 19.2682864,5.32974725 22.8579085,6.38458603 C23.4103296,6.54691932 23.7542892,5.80059363 23.2720109,5.48606427 L23.2380109,5.46389035 L22.964877,5.88269565 L23.3317204,6.22243953 C23.3645359,6.18700655 23.4296175,6.11823259 23.5239635,6.02090631 C23.6824886,5.85737356 23.864321,5.67480982 24.0664401,5.47801329 C24.6441408,4.91552576 25.2672449,4.35304617 25.9110298,3.82916799 C26.7069572,3.18148423 27.4777826,2.63982474 28.1981624,2.23976006 C29.0691513,1.75605422 29.8316663,1.5 30.4433987,1.5 L30.1263589,1.3866339 C31.3391078,2.381088 32.0178003,3.61323531 32.2483105,5.04534801 C32.4937722,6.57035156 32.2230442,8.22854707 31.6171462,9.86183309 C31.4588227,10.2886173 31.2892667,10.6799748 31.1201457,11.0266371 C31.0199208,11.232077 30.9433264,11.3749453 30.9021028,11.4461327 L31.33479,11.6966957 L31.6180544,11.2846747 L31.5707501,11.252153 L31.5707501,11.252153 Z" id="Shape"></path>
                            <path d="M23.4565217,21.2173913 C23.4565217,22.1996178 22.9665247,22.9347826 22.4782609,22.9347826 C21.9908663,22.9347826 21.5,22.1988222 21.5,21.2173913 C21.5,20.2359604 21.9908663,19.5 22.4782609,19.5 C22.9665247,19.5 23.4565217,20.2351648 23.4565217,21.2173913 L23.4565217,21.2173913 Z M24.4565217,21.2173913 C24.4565217,19.7481504 23.6246131,18.5 22.4782609,18.5 C21.3329746,18.5 20.5,19.7488866 20.5,21.2173913 C20.5,22.685896 21.3329746,23.9347826 22.4782609,23.9347826 C23.6246131,23.9347826 24.4565217,22.6866322 24.4565217,21.2173913 L24.4565217,21.2173913 Z" id="Shape"></path>
                            <path d="M13.4565217,21.2173913 C13.4565217,22.1996178 12.9665247,22.9347826 12.4782609,22.9347826 C11.9908663,22.9347826 11.5,22.1988222 11.5,21.2173913 C11.5,20.2359604 11.9908663,19.5 12.4782609,19.5 C12.9665247,19.5 13.4565217,20.2351648 13.4565217,21.2173913 L13.4565217,21.2173913 Z M14.4565217,21.2173913 C14.4565217,19.7481504 13.6246131,18.5 12.4782609,18.5 C11.3329746,18.5 10.5,19.7488866 10.5,21.2173913 C10.5,22.685896 11.3329746,23.9347826 12.4782609,23.9347826 C13.6246131,23.9347826 14.4565217,22.6866322 14.4565217,21.2173913 L14.4565217,21.2173913 Z" id="Shape"></path>
                        </g>
                    </g>
                </g>
            </g>
        </g>
    </g>
</svg>