<?xml version="1.0" encoding="UTF-8" standalone="no"?>
<svg width="34px" height="34px" viewBox="0 0 34 34" version="1.1" xmlns="http://www.w3.org/2000/svg" xmlns:xlink="http://www.w3.org/1999/xlink" xmlns:sketch="http://www.bohemiancoding.com/sketch/ns">
    <!-- Generator: Sketch 3.4.2 (15857) - http://www.bohemiancoding.com/sketch -->
    <title>Group</title>
    <desc>Created with Sketch.</desc>
    <defs></defs>
    <g id="Welcome" stroke="none" stroke-width="1" fill="none" fill-rule="evenodd" sketch:type="MSPage">
        <g id="White-Menus" sketch:type="MSArtboardGroup" transform="translate(-114.000000, -17.000000)" fill="#656464">
            <g id="Header" sketch:type="MSLayerGroup" transform="translate(1.000000, 0.000000)">
                <g id="Header-" sketch:type="MSShapeGroup">
                    <g id="MENU-+-Hamburger-Icon" transform="translate(113.000000, 17.000000)">
                        <g id="Hamburger-Icon">
                            <g id="Group">
                                <path d="M16.7763932,23.8305719 L25.2763932,28.0805719 C25.4688875,28.1768191 25.7013733,28.1390919 25.8535534,27.9869117 L30.1035534,23.7369117 C30.2988155,23.5416496 30.2988155,23.2250671 30.1035534,23.0298049 C29.9082912,22.8345428 29.5917088,22.8345428 29.3964466,23.0298049 L25.1464466,27.2798049 L25.7236068,27.1861447 L17.2236068,22.9361447 C16.9766175,22.8126501 16.676281,22.9127623 16.5527864,23.1597515 C16.4292918,23.4067408 16.529404,23.7070773 16.7763932,23.8305719" id="Shape"></path>
                                <path d="M32.7916667,26.2166917 C32.7916667,27.5056056 31.7479686,28.550025 30.4583333,28.550025 L3.54166667,28.550025 C2.25380904,28.550025 1.20833333,27.5045493 1.20833333,26.2166917 C1.20833333,24.9279452 2.25328104,23.8833583 3.54166667,23.8833583 L30.4583333,23.8833583 C31.7484963,23.8833583 32.7916667,24.9268892 32.7916667,26.2166917 M33.7916667,26.2166917 C33.7916667,24.3746818 32.3008584,22.8833583 30.4583333,22.8833583 L3.54166667,22.8833583 C1.70107359,22.8833583 0.208333333,24.3755831 0.208333333,26.2166917 C0.208333333,28.056834 1.70152429,29.550025 3.54166667,29.550025 L30.4583333,29.550025 C32.300408,29.550025 33.7916667,28.0577358 33.7916667,26.2166917" id="Shape"></path>
                                <path d="M30.4583333,18.2166917 C31.7484963,18.2166917 32.7916667,19.2602225 32.7916667,20.550025 C32.7916667,21.838939 31.7479686,22.8833583 30.4583333,22.8833583 L3.54166667,22.8833583 C2.25380904,22.8833583 1.20833333,21.8378826 1.20833333,20.550025 C1.20833333,19.2612786 2.25328104,18.2166917 3.54166667,18.2166917 C3.81780904,18.2166917 4.04166667,17.992834 4.04166667,17.7166917 C4.04166667,17.4405493 3.81780904,17.2166917 3.54166667,17.2166917 C1.70107359,17.2166917 0.208333333,18.7089165 0.208333333,20.550025 C0.208333333,22.3901674 1.70152429,23.8833583 3.54166667,23.8833583 L30.4583333,23.8833583 C32.300408,23.8833583 33.7916667,22.3910691 33.7916667,20.550025 C33.7916667,18.7080151 32.3008584,17.2166917 30.4583333,17.2166917 C30.182191,17.2166917 29.9583333,17.4405493 29.9583333,17.7166917 C29.9583333,17.992834 30.182191,18.2166917 30.4583333,18.2166917" id="Shape"></path>
                                <path d="M3.04166667,29.050025 L3.04166667,30.4666917 C3.04166667,32.306834 4.53485763,33.800025 6.375,33.800025 L27.625,33.800025 C29.4670747,33.800025 30.9583333,32.3077358 30.9583333,30.4666917 L30.9583333,29.050025 C30.9583333,28.7738826 30.7344757,28.550025 30.4583333,28.550025 L3.54166667,28.550025 C3.26552429,28.550025 3.04166667,28.7738826 3.04166667,29.050025 M4.04166667,29.050025 L3.54166667,29.550025 L30.4583333,29.550025 L29.9583333,29.050025 L29.9583333,30.4666917 C29.9583333,31.7556056 28.9146352,32.800025 27.625,32.800025 L6.375,32.800025 C5.08714237,32.800025 4.04166667,31.7545493 4.04166667,30.4666917 L4.04166667,29.050025" id="Shape"></path>
                                <path d="M30.9583333,13.4666917 C30.9583333,5.88407987 24.8461043,0.216691667 17,0.216691667 C9.15297154,0.216691667 3.04166667,5.88363496 3.04166667,13.4666917 C3.04166667,13.742834 3.26552429,13.9666917 3.54166667,13.9666917 L30.4583333,13.9666917 C30.7344757,13.9666917 30.9583333,13.742834 30.9583333,13.4666917 M29.9583333,13.4666917 L30.4583333,12.9666917 L3.54166667,12.9666917 L4.04166667,13.4666917 C4.04166667,6.45348941 9.68909703,1.21669167 17,1.21669167 C24.3099936,1.21669167 29.9583333,6.45395186 29.9583333,13.4666917" id="Shape"></path>
                                <path d="M3.44478803,12.9761669 C3.34283674,12.9963023 3.17404143,13.0363008 2.95988071,13.0983181 C2.60388315,13.2014091 2.24739952,13.3309018 1.91093255,13.490303 C0.869362823,13.9837467 0.208333333,14.6621282 0.208333333,15.5916917 C0.208333333,17.352273 1.52866898,18.2166917 3.54166667,18.2166917 C4.48181197,18.2166917 5.43244848,17.9187444 6.01045459,17.3714146 L5.22923082,17.2505357 C6.06720641,18.7641394 7.47210197,19.6333583 9.20833333,19.6333583 C11.1829397,19.6333583 12.4826955,18.8710394 13.2082668,17.2083372 L12.2915749,17.2079741 C12.983058,18.7959905 14.8430598,19.6333583 17,19.6333583 C19.1562888,19.6333583 21.0153444,18.796222 21.7082668,17.2083372 L20.7915749,17.2079741 C21.5155415,18.87059 22.8164569,19.6333583 24.7916667,19.6333583 C26.5264172,19.6333583 27.9310709,18.764289 28.7705683,17.2508982 L27.9895454,17.3714146 C28.5675515,17.9187444 29.518188,18.2166917 30.4583333,18.2166917 C32.4730706,18.2166917 33.7916667,17.3528153 33.7916667,15.5916917 C33.7916667,14.6621282 33.1306372,13.9837467 32.0890675,13.490303 C31.7526005,13.3309018 31.3961168,13.2014091 31.0401193,13.0983181 C30.8259586,13.0363008 30.6571633,12.9963023 30.555212,12.9761669 C30.2843026,12.9226623 30.0213132,13.0989037 29.9678086,13.369813 C29.914304,13.6407224 30.0905454,13.9037118 30.3614547,13.9572164 C30.4365867,13.972055 30.5776873,14.0054908 30.761964,14.0588543 C31.070029,14.1480647 31.3776078,14.2597928 31.6609325,14.3940178 C32.3901962,14.7395065 32.7916667,15.1515156 32.7916667,15.5916917 C32.7916667,16.6898223 31.9874684,17.2166917 30.4583333,17.2166917 C29.7532893,17.2166917 29.0466481,16.9952171 28.6771213,16.6453021 C28.4399208,16.4206904 28.0545602,16.4801538 27.8960984,16.7658185 C27.2289721,17.9684699 26.1543306,18.6333583 24.7916667,18.6333583 C23.1964833,18.6333583 22.2651535,18.0872898 21.7084251,16.8087425 C21.534102,16.4084032 20.9663733,16.4081784 20.7917332,16.8083795 C20.2875346,17.9637892 18.8006008,18.6333583 17,18.6333583 C15.1989547,18.6333583 13.7113037,17.9636218 13.2084251,16.8087425 C13.034102,16.4084032 12.4663733,16.4081784 12.2917332,16.8083795 C11.7334931,18.0876295 10.8030241,18.6333583 9.20833333,18.6333583 C7.84431691,18.6333583 6.76975101,17.9685167 6.10410251,16.766181 C5.94579451,16.4802352 5.5602036,16.4205726 5.32287874,16.6453021 C4.95335192,16.9952171 4.24671073,17.2166917 3.54166667,17.2166917 C2.01421709,17.2166917 1.20833333,16.6890827 1.20833333,15.5916917 C1.20833333,15.1515156 1.60980384,14.7395065 2.33906745,14.3940178 C2.62239215,14.2597928 2.92997101,14.1480647 3.23803596,14.0588543 C3.42231274,14.0054908 3.56341326,13.972055 3.6385453,13.9572164 C3.90945464,13.9037118 4.08569601,13.6407224 4.03219142,13.369813 C3.97868682,13.0989037 3.71569737,12.9226623 3.44478803,12.9761669" id="Shape"></path>
                            </g>
                        </g>
                    </g>
                </g>
            </g>
        </g>
    </g>
</svg>