<?xml version="1.0" encoding="UTF-8" standalone="no"?>
<svg width="424px" height="33px" viewBox="0 0 424 33" version="1.1" xmlns="http://www.w3.org/2000/svg" xmlns:xlink="http://www.w3.org/1999/xlink" xmlns:sketch="http://www.bohemiancoding.com/sketch/ns">
    <!-- Generator: Sketch 3.4.2 (15857) - http://www.bohemiancoding.com/sketch -->
    <title>Social Icons</title>
    <desc>Created with Sketch.</desc>
    <defs></defs>
    <g id="Welcome" stroke="none" stroke-width="1" fill="none" fill-rule="evenodd" sketch:type="MSPage">
        <g id="White-Menus" sketch:type="MSArtboardGroup" transform="translate(-510.000000, -17.000000)">
            <g id="Header" sketch:type="MSLayerGroup" transform="translate(1.000000, 0.000000)">
                <g id="Header-" sketch:type="MSShapeGroup">
                    <g id="Social-Icons" transform="translate(509.000000, 17.000000)">
                        <g id="Twitter-Icon" transform="translate(62.000000, 4.000000)" fill="#656464">
                            <path d="M34.7595584,3.57908244 C33.6483069,4.07464051 32.7655007,4.0831232 31.8091835,3.6115327 L31.8448214,4.48899989 C32.1520442,4.30512431 32.404384,4.12950233 32.6172055,3.95028585 C33.1752888,3.4803254 33.4586469,3.00922604 33.735409,2.19367153 C33.8041066,1.99123566 34.0648647,1.15553872 34.0655652,1.15334201 C34.2052628,0.715293308 33.7294562,0.336797321 33.3340463,0.571431229 C32.0350962,1.34222051 30.612416,1.88932014 29.120108,2.18489805 L29.5819845,2.33335803 C28.1972676,0.856661179 26.2599816,0 24.1939075,0 C20.1164248,0 16.8102861,3.30714388 16.8102861,7.38362146 C16.8102861,7.95824927 16.8742818,8.52198223 17.0004555,9.06600409 L17.5125158,8.45366349 C12.0682817,8.18123558 7.08121979,5.60847019 3.68674684,1.44300808 C3.4660386,1.1721702 3.04268443,1.20542988 2.86697816,1.50741099 C2.21505448,2.6278527 1.86598025,3.90087371 1.86598025,5.22188558 C1.86598025,7.71885656 3.114934,10.0054367 5.15116994,11.3668249 L5.44516964,10.4514266 C4.42122728,10.4184405 3.43590395,10.1426357 2.55396312,9.65346791 C2.23079628,9.47422366 1.83155859,9.69539859 1.81213561,10.0644353 C1.81108923,10.0867109 1.81108923,10.0867109 1.81052016,10.1072594 C1.80991743,10.1455236 1.80991743,10.1455236 1.80992964,10.1770629 C1.80992964,13.7102633 4.31120333,16.729257 7.73463074,17.4175651 L7.70205798,16.444876 C6.76327576,16.7000106 5.77674626,16.7379678 4.81705426,16.5544354 C4.44427611,16.483145 4.13110416,16.8368627 4.24703108,17.1982584 C5.20432259,20.1825609 7.96667913,22.2672703 11.1445035,22.3264149 L10.8453262,21.4330054 C8.04794469,23.6260144 4.54024303,24.5918032 1.02140197,24.1793926 C0.494594741,24.1176504 0.246828172,24.8107131 0.693382159,25.0969429 C3.90580617,27.1560252 7.62945995,28.2678667 11.5158644,28.2678667 C23.307309,28.2678667 31.5987373,18.8594461 31.5987373,8.181964 C31.5987373,7.84639403 31.5931118,7.55311851 31.5800325,7.26827867 L31.0805588,7.29121369 L31.3731204,7.69668585 C31.5177885,7.59230299 31.67281,7.48349667 31.8586248,7.35542153 C31.988942,7.26559886 32.456244,6.94666283 32.5443862,6.8861114 C33.989596,5.89329011 34.769691,5.22588363 35.3790146,4.31339905 C35.6574085,3.89649393 35.2174069,3.37490673 34.7595584,3.57908244 L34.7595584,3.57908244 Z M35.1668416,4.49238432 L34.5473854,3.75806771 C34.0294004,4.53376944 33.323802,5.13744071 31.978152,6.06186706 C31.8919492,6.12108611 31.4237736,6.44061836 31.2911112,6.53205754 C31.0998389,6.66389426 30.9392113,6.77663543 30.7879971,6.88574152 C30.6511532,6.98447897 30.5733446,7.14557993 30.5810851,7.3141487 C30.5933971,7.58227832 30.5987373,7.86068136 30.5987373,8.181964 C30.5987373,18.333315 22.7249189,27.2678667 11.5158644,27.2678667 C7.82257971,27.2678667 4.28586875,26.2118443 1.23301784,24.2550443 L0.90499803,25.1725946 C4.68401531,25.6154979 8.45567899,24.5770316 11.4622892,22.2199976 C11.8325311,21.9297463 11.6334823,21.3353425 11.163112,21.3265881 C8.41581004,21.2754562 6.02672515,19.4724494 5.1992406,16.8928128 L4.62921742,17.5366357 C5.7383831,17.7487535 6.87884741,17.7048736 7.96431706,17.4098735 C8.47342812,17.2715115 8.44897118,16.5411772 7.93174431,16.4371845 C4.97295223,15.8422951 2.80992964,13.2315645 2.80992964,10.1770629 C2.80994185,10.1493536 2.80994185,10.1493536 2.81023683,10.1310622 C2.81045325,10.1233329 2.81045325,10.1233329 2.81075343,10.1169941 L2.31144452,10.0907147 L2.06892592,10.5279614 C3.08867724,11.0935657 4.22903975,11.412768 5.41297158,11.4509081 C5.91544161,11.4670951 6.12489892,10.8149282 5.70697128,10.5355098 C3.94548188,9.35781178 2.86598025,7.38146402 2.86598025,5.22188558 C2.86598025,4.07900487 3.16753713,2.97927249 3.73131633,2.01032204 L2.91154765,2.07472495 C6.48314475,6.45754156 11.7326362,9.16569117 17.4625386,9.45241385 C17.7942292,9.46901155 18.0496318,9.16359168 17.9745989,8.84007326 C17.8656765,8.37043386 17.8102861,7.88250427 17.8102861,7.38362146 C17.8102861,3.85936059 20.6687776,1 24.1939075,1 C25.9808207,1 27.655008,1.74031981 28.8525246,3.01738159 C28.9705529,3.14324994 29.1451393,3.19936686 29.3144011,3.16584156 C30.9186836,2.84808512 32.4481596,2.2599166 33.8443587,1.43142031 L33.1128398,0.849509527 C33.1085608,0.862926929 32.8524733,1.68365529 32.7884502,1.87231671 C32.565561,2.52912005 32.3738159,2.8479074 31.9730733,3.1853717 C31.8045504,3.32728438 31.5953053,3.47291357 31.3312667,3.63094308 C30.9914476,3.83432789 31.0117112,4.33325307 31.3669046,4.50841027 C32.5999581,5.11646822 33.7930891,5.10500368 35.1668416,4.49238432 L35.1668416,4.49238432 Z" id="Shape"></path>
                        </g>
                        <g id="LinkedIn-Icon" transform="translate(327.000000, 0.000000)" stroke="#656464" stroke-linejoin="round">
                            <path d="M22.4090909,17.7727273 C20.7013636,17.7727273 19.3181818,19.1574545 19.3181818,20.8636364 L19.3181818,31.6818182 L11.5909091,31.6818182 C11.5909091,31.6818182 11.6820909,13.1363636 11.5909091,11.5909091 L19.3181818,11.5909091 L19.3181818,13.8859091 C19.3181818,13.8859091 21.7105455,11.6558182 25.4057273,11.6558182 C29.9818182,11.6558182 33.2272727,14.9677273 33.2272727,21.3983636 L33.2272727,31.6818182 L25.5,31.6818182 L25.5,20.8636364 C25.5,19.1574545 24.1168182,17.7727273 22.4090909,17.7727273 L22.4090909,17.7727273 Z M4.62090909,8.5 L4.57609091,8.5 C2.24090909,8.5 0.731,6.67327273 0.731,4.66572727 C0.731,2.61181818 2.28727273,0.938090909 4.66727273,0.938090909 C7.04881818,0.938090909 8.51236364,2.66590909 8.55872727,4.71981818 C8.55872727,6.72890909 7.04881818,8.5 4.62090909,8.5 L4.62090909,8.5 Z M8.5,31.6818182 L0.772727273,31.6818182 L0.772727273,11.5909091 L8.5,11.5909091 L8.5,31.6818182 Z" id="Stroke-69"></path>
                        </g>
                        <g id="GitHub-Icon" transform="translate(390.000000, 2.000000)" fill="#656464">
                            <path d="M28.673913,21.9482786 C28.673913,18.5826915 27.8048578,16.6692145 26.0456659,15.8977954 C24.7439824,15.3269972 23.5609075,15.3798819 20.4592023,15.8704074 C19.9602685,15.9493124 19.6821689,15.9919825 19.3764377,16.0352545 C18.4656952,16.1641577 17.7501715,16.2285394 17.0869565,16.2285394 C16.4247901,16.2285394 15.7112354,16.1661894 14.7997494,16.0411565 C14.5007712,16.0001442 14.2292922,15.9598712 13.7406265,15.8852232 C10.6331961,15.4105361 9.44379971,15.3624878 8.13872741,15.9329836 C6.37365531,16.7045625 5.5,18.6079507 5.5,21.9482786 C5.5,25.0818992 8.04029241,27.6221916 11.173913,27.6221916 L23,27.6221916 C26.1346104,27.6221916 28.673913,25.0823878 28.673913,21.9482786 L28.673913,21.9482786 Z M27.673913,21.9482786 C27.673913,24.5301472 25.5822815,26.6221916 23,26.6221916 L11.173913,26.6221916 C8.59257716,26.6221916 6.5,24.5296144 6.5,21.9482786 C6.5,18.964292 7.20260183,17.4335693 8.5392673,16.8492629 C9.59611961,16.3872733 10.695779,16.4316965 13.5896195,16.8737559 C14.0830618,16.9491336 14.3584012,16.9899792 14.6638472,17.0318787 C15.6165063,17.1625596 16.371602,17.2285394 17.0869565,17.2285394 C17.8049585,17.2285394 18.5633903,17.1602969 19.5165773,17.0253863 C19.8291844,16.981141 20.1113974,16.9378398 20.6154081,16.858132 C23.500898,16.4018003 24.5935629,16.352957 25.6440727,16.8136136 C26.973779,17.3966999 27.673913,18.938248 27.673913,21.9482786 L27.673913,21.9482786 Z" id="Shape"></path>
                            <path d="M31.0042213,12.0761949 L31.0515256,12.1087166 C31.2916327,12.2737903 31.6214605,12.1994091 31.7674772,11.9472586 C31.820146,11.8563069 31.9078633,11.6926915 32.0188963,11.4650972 C32.2018718,11.0900361 32.3844124,10.6687086 32.5547122,10.2096407 C33.2154173,8.42861409 33.512683,6.60787614 33.2356031,4.88643522 C32.9672786,3.21938985 32.1672413,1.76694442 30.7604385,0.613366105 C30.6710426,0.540061443 30.5590067,0.5 30.4433987,0.5 C29.6322732,0.5 28.7188733,0.806721681 27.7126551,1.36552743 C26.934939,1.79743399 26.1179246,2.37155052 25.2798546,3.05352766 C24.6110825,3.59773916 23.9664624,4.17964136 23.3688301,4.76153562 C23.1595827,4.96527272 22.9709809,5.15463307 22.8059488,5.32487834 C22.7061605,5.42781887 22.6358743,5.50209263 22.5980336,5.54295177 C22.38754,5.77023528 22.4322658,6.13227663 22.6917431,6.30150095 L22.7257431,6.32367486 L22.998877,5.90486957 L23.1398454,5.4251531 C19.367554,4.3166355 15.1387796,4.30823953 11.3562929,5.40085688 L11.4950509,5.88121739 L11.8591509,5.53853504 C11.8193252,5.49565273 11.7484399,5.42081588 11.6479252,5.31718953 C11.4820818,5.14621216 11.293275,4.95673713 11.0841393,4.75318703 C10.4886199,4.1735728 9.84702768,3.59449725 9.18160273,3.05287567 C8.34280601,2.3701384 7.52509439,1.79555825 6.74671375,1.36357923 C5.74203784,0.806012781 4.8298254,0.5 4.01948568,0.5 C3.90389969,0.5 3.79188373,0.540046226 3.70249542,0.61332549 C1.48963039,2.42740073 0.803815689,4.91870831 1.24774428,7.74077377 C1.403002,8.72775109 1.68861462,9.69226411 2.0574806,10.6024869 C2.28900463,11.1738014 2.50333842,11.6085056 2.67428372,11.9132342 L3.11035524,11.6686087 L2.69428815,11.3913215 C1.04584612,13.864795 0.291303996,16.8249218 0.549642682,20.1964606 C0.949030279,25.3752425 5.22053238,30.326087 9.89113785,30.326087 L24.5081813,30.326087 C29.181294,30.326087 33.4519116,25.3756913 33.8496698,20.1965481 C34.1110358,16.8206933 33.3556883,13.8569902 31.7030911,11.3861952 L31.2874857,11.6641739 L31.0042213,12.0761949 L31.0042213,12.0761949 Z M31.5707501,11.252153 C31.1167422,10.9400225 30.5655742,11.484195 30.8718803,11.9421526 C32.3984421,14.2245122 33.0968774,16.964913 32.8526297,20.1196653 C32.4916731,24.8196196 28.6040245,29.326087 24.5081813,29.326087 L9.89113785,29.326087 C5.79772935,29.326087 1.90910305,24.8190111 1.54670105,20.119815 C1.30529544,16.9692664 2.00314008,14.2315682 3.52642233,11.9458959 C3.63064566,11.7895096 3.63837362,11.5878885 3.54642676,11.4239832 C3.029436,10.502391 2.48193661,9.15136793 2.23559664,7.5853784 C1.84228628,5.08509435 2.43020424,2.9494089 4.33647593,1.38667451 L4.01948568,1.5 C4.63060592,1.5 5.39196263,1.75540639 6.26146115,2.23795323 C6.98235307,2.63802766 7.7537715,3.18007905 8.5503337,3.8284396 C9.19086855,4.34980193 9.81101581,4.90952207 10.386667,5.46979871 C10.5886979,5.66643378 10.7707611,5.84914139 10.9301236,6.01343724 C11.0257683,6.11204282 11.0923063,6.18229002 11.1309509,6.22389974 C11.2594851,6.36046732 11.453634,6.41362361 11.6338089,6.3615779 C15.2335923,5.32173661 19.2682864,5.32974725 22.8579085,6.38458603 C23.4103296,6.54691932 23.7542892,5.80059363 23.2720109,5.48606427 L23.2380109,5.46389035 L22.964877,5.88269565 L23.3317204,6.22243953 C23.3645359,6.18700655 23.4296175,6.11823259 23.5239635,6.02090631 C23.6824886,5.85737356 23.864321,5.67480982 24.0664401,5.47801329 C24.6441408,4.91552576 25.2672449,4.35304617 25.9110298,3.82916799 C26.7069572,3.18148423 27.4777826,2.63982474 28.1981624,2.23976006 C29.0691513,1.75605422 29.8316663,1.5 30.4433987,1.5 L30.1263589,1.3866339 C31.3391078,2.381088 32.0178003,3.61323531 32.2483105,5.04534801 C32.4937722,6.57035156 32.2230442,8.22854707 31.6171462,9.86183309 C31.4588227,10.2886173 31.2892667,10.6799748 31.1201457,11.0266371 C31.0199208,11.232077 30.9433264,11.3749453 30.9021028,11.4461327 L31.33479,11.6966957 L31.6180544,11.2846747 L31.5707501,11.252153 L31.5707501,11.252153 Z" id="Shape"></path>
                            <path d="M23.4565217,21.2173913 C23.4565217,22.1996178 22.9665247,22.9347826 22.4782609,22.9347826 C21.9908663,22.9347826 21.5,22.1988222 21.5,21.2173913 C21.5,20.2359604 21.9908663,19.5 22.4782609,19.5 C22.9665247,19.5 23.4565217,20.2351648 23.4565217,21.2173913 L23.4565217,21.2173913 Z M24.4565217,21.2173913 C24.4565217,19.7481504 23.6246131,18.5 22.4782609,18.5 C21.3329746,18.5 20.5,19.7488866 20.5,21.2173913 C20.5,22.685896 21.3329746,23.9347826 22.4782609,23.9347826 C23.6246131,23.9347826 24.4565217,22.6866322 24.4565217,21.2173913 L24.4565217,21.2173913 Z" id="Shape"></path>
                            <path d="M13.4565217,21.2173913 C13.4565217,22.1996178 12.9665247,22.9347826 12.4782609,22.9347826 C11.9908663,22.9347826 11.5,22.1988222 11.5,21.2173913 C11.5,20.2359604 11.9908663,19.5 12.4782609,19.5 C12.9665247,19.5 13.4565217,20.2351648 13.4565217,21.2173913 L13.4565217,21.2173913 Z M14.4565217,21.2173913 C14.4565217,19.7481504 13.6246131,18.5 12.4782609,18.5 C11.3329746,18.5 10.5,19.7488866 10.5,21.2173913 C10.5,22.685896 11.3329746,23.9347826 12.4782609,23.9347826 C13.6246131,23.9347826 14.4565217,22.6866322 14.4565217,21.2173913 L14.4565217,21.2173913 Z" id="Shape"></path>
                        </g>
                        <g id="Mail-Icon" transform="translate(0.000000, 1.000000)" fill="#656464">
                            <path d="M33.1007866,0.24620262 L0.517453256,13.704536 C0.10063747,13.876699 0.106802432,14.469216 0.527110203,14.632669 L13.2771102,19.5910023 C13.4556553,19.6604365 13.6581769,19.6217515 13.7985589,19.4913967 L33.6318922,1.07473008 C34.0402349,0.695554688 33.6158231,0.0334701315 33.1007866,0.24620262 L33.1007866,0.24620262 Z M33.4825467,1.17046405 L32.9514411,0.341936588 L13.1181078,18.7586033 L13.6395565,18.6589977 L0.889556464,13.7006643 L0.899213411,14.6287974 L33.4825467,1.17046405 L33.4825467,1.17046405 Z" id="Shape"></path>
                            <path d="M32.8029596,0.602666937 L27.1362929,26.8110003 L27.8659594,26.4785587 L13.6992927,18.686892 L13.7985589,19.4913967 L33.6318922,1.07473008 L32.8029596,0.602666937 L32.8029596,0.602666937 Z M33.7803737,0.81399973 C33.8837525,0.335872834 33.3099056,0.00907669717 32.9514411,0.341936588 L13.1181078,18.7586033 C12.8683561,18.9905155 12.9187408,19.3988597 13.217374,19.563108 L27.3840406,27.3547746 C27.6772289,27.5160282 28.0429936,27.3493831 28.1137071,27.0223331 L33.7803737,0.81399973 L33.7803737,0.81399973 Z" id="Shape"></path>
                            <path d="M12.9583333,19.125 L12.9583333,30.4583333 C12.9583333,30.9687005 13.6330635,31.1511133 13.8902228,30.7102688 L18.8485561,22.2102688 L17.9847772,21.7063978 L13.0264439,30.2063978 L13.9583333,30.4583333 L13.9583333,19.125 L12.9583333,19.125 L12.9583333,19.125 Z" id="Shape"></path>
                        </g>
                    </g>
                </g>
            </g>
        </g>
    </g>
</svg>